# Blender v2.65 (sub 0) OBJ File: 'Level_Save_04_Cube.blend'
# www.blender.org
mtllib Tile_Normal.mtl
o tile
v  1.0 -1.0 -1.0
v  1.0 -1.0  1.0
v -1.0 -1.0  1.0
v -1.0 -1.0 -1.0
v  1.0  0.0 -1.0
v  1.0  0.0  1.0
v -1.0  0.0  1.0
v -1.0  0.0 -1.0
vt 0.0 0.0
vt 1.0 0.0
vt 0.0 0.67
vt 1.0 0.67
vt 0.0 1.0
vt 1.0 1.0
vn  0.0 -1.0  0.0
vn  0.0  1.0  0.0
vn  1.0  0.0  0.0
vn  0.0  0.0  1.0
vn -1.0  0.0  0.0
vn  0.0  0.0 -1.0
s off
f 1/2/1 2/4/1 3/3/1
f 1/2/1 3/3/1 4/1/1
f 5/2/2 8/1/2 7/3/2
f 5/2/2 7/3/2 6/4/2
f 1/3/3 5/5/3 6/6/3
f 1/3/3 6/6/3 2/4/3
f 2/3/4 6/5/4 7/6/4
f 2/3/4 7/6/4 3/4/4
f 3/3/5 7/5/5 8/6/5
f 3/3/5 8/6/5 4/4/5
f 5/6/6 1/4/6 4/3/6
f 5/6/6 4/3/6 8/5/6

